<svg id="Capa_1" enable-background="new 0 0 512 512" height="512" viewBox="0 0 512 512" width="512" xmlns="http://www.w3.org/2000/svg"><g><g><path d="m208 432.99h96v64.01h-96z" fill="#dae6fe"/></g><path d="m256.06 432.99h47.94v64.01h-47.94z" fill="#c0d7fe"/><path d="m512 391.49v51.79h-512v-51.79l256.06-12.07z" fill="#ecf2ff"/><path d="m512 391.49v51.79h-255.94v-63.86z" fill="#dae6fe"/><path d="m135.5 482h241v30h-241z" fill="#ecf2ff"/><path d="m256.06 482h120.44v30h-120.44z" fill="#dae6fe"/><path d="m0 64v327.49h512v-327.49z" fill="#4e5f7f"/><path d="m256.06 64h255.94v327.49h-255.94z" fill="#3e4665"/><path d="m482 94v267.49h-451.88l.01-207.25-.01-60.24z" fill="#c0d7fe"/><path d="m256.06 94h225.94v267.49h-225.94z" fill="#c0d7fe"/><path d="m448 64v257.875h-384v-257.875l192.025-12.69z" fill="#ecf2ff"/><path d="m448 64v257.875h-191.975v-270.565z" fill="#dae6fe"/><path d="m64 0v64h64l9.199-32-9.199-32z" fill="#fd7f49"/><path d="m128 0v64h64.001l9.198-32-9.198-32z" fill="#fede51"/><path d="m192 0h256v64h-256z" fill="#dae6fe"/><path d="m256.025 0h191.975v64h-191.975z" fill="#c0d7fe"/><path d="m295.79 145.98-39.76 85.16-12.64 27.07-27.18-12.69 39.82-85.29 12.58-26.94z" fill="#00ce6d"/><path d="m295.79 145.98-39.76 85.16v-70.91l12.58-26.94z" fill="#009a86"/><path d="m186.984 255.442-58.553-59.692 58.553-59.691 21.416 21.008-37.946 38.683 37.946 38.684z" fill="#00ce6d"/><path d="m324.9 255.442-21.416-21.008 37.947-38.684-37.947-38.683 21.416-21.008 58.554 59.691z" fill="#009a86"/></g></svg>